<svg xmlns="http://www.w3.org/2000/svg" style="opacity:0.4" width="3109" height="800" fill="none"
    xmlns:v="https://vecta.io/nano">
    <g clip-path="url(#A)" stroke="#A64D79" stroke-width="1.845" stroke-miterlimit="10">
        <path
            d="M16.863 61.621h-184.519v369.021H16.863V61.621zM1331.46 461.42l15.38 30.756-15.38 30.738 15.38 30.756-15.38 30.757 15.38 30.738-15.38 30.756 15.38 30.701-15.38 30.793 15.38 30.757-15.38 30.756M754.871 430.646H201.367v184.501h553.504V430.646z" />
        <path
            d="M262.861 553.635c33.963 0 61.495-27.532 61.495-61.495s-27.532-61.494-61.495-61.494-61.494 27.532-61.494 61.494 27.532 61.495 61.494 61.495zm123.008 0c33.963 0 61.494-27.532 61.494-61.495s-27.531-61.494-61.494-61.494-61.494 27.532-61.494 61.494 27.532 61.495 61.494 61.495zm368.996-430.551c33.963 0 61.495-27.532 61.495-61.495S788.828.095 754.865.095s-61.494 27.532-61.494 61.494 27.532 61.495 61.494 61.495zm155.039 215.331c33.963 0 61.495-27.532 61.495-61.494s-27.532-61.494-61.495-61.494-61.494 27.531-61.494 61.494 27.532 61.494 61.494 61.494zM508.875 553.653h122.988L508.875 430.646v123.007z" />
        <path
            d="M631.855 553.653h123.007L631.855 430.646v123.007zm-184.496 61.49l30.757-30.757 30.756 30.757h-61.513z" />
        <path d="M754.871 553.65H201.367v30.756h553.504V553.65z" />
        <use href="#B" />
        <path d="M324.356 676.494H201.367V737.97H324.356V676.494Z" />
        <path d="M324.356 615.161H201.367v61.476h122.989v-61.476zm430.52 122.989H632.57v61.531h122.306V738.15z" />
        <use href="#C" />
        <path d="M754.876 615.074H632.57v61.531h122.306v-61.531z" />
        <path d="M1123.87 430.661H754.867V799.664H1123.87V430.661Z" />
        <path d="M939.367 799.663V430.66" />
        <path d="M754.867 615.161H1123.87" />
        <path
            d="M754.867 430.661v61.495c0 169.833 55.074 307.508 123.007 307.508s123.006-137.675 123.006-307.508v-61.495" />
        <path
            d="M877.883 430.66v61.495c0 169.833 55.073 307.508 123.007 307.508s123.01-137.675 123.01-307.508V430.66" />
        <path
            d="M816.359 430.66v61.495c0 169.833 55.074 307.508 123.007 307.508s123.004-137.675 123.004-307.508V430.66m153.74 369.002c50.95 0 92.25-41.302 92.25-92.25s-41.3-92.251-92.25-92.251c-50.94 0-92.25 41.302-92.25 92.251s41.31 92.25 92.25 92.25z" />
        <use href="#D" />
        <path d="M1303.12 676.583l-86.99-245.996-87 245.996" />
        <path
            d="M1216.11 615.163V430.587m38.23 192.878l-38.23-192.878m-38.31 192.878l38.23-192.878M16.848 184.596h369.039V.094H16.848v184.502z" />
        <path
            d="M324.375 184.593c0-33.967 27.528-61.494 61.494-61.494m-245.943 61.493c0-33.967 27.527-61.494 61.494-61.494M385.885 61.59c-33.967 0-61.494-27.528-61.494-61.494M201.438 61.582c-16.938 0-32.27-6.845-43.395-17.915m-97.602 97.441c11.125 11.126 18.007 26.513 18.007 43.487m122.993-61.497c33.967 0 61.495 27.527 61.495 61.494" />
        <path d="M262.936.096c0 33.967-27.528 61.494-61.495 61.494" />
        <use href="#E" />
        <path d="M1492.89 184.591c0-33.966 27.53-61.494 61.49-61.494" />
        <use href="#F" />
        <use href="#G" />
        <path d="M1431.45.094c0 33.967-27.53 61.494-61.5 61.494M754.317.095h-368.43v369.003h368.43" />
        <use href="#H" />
        <path
            d="M385.352 184.597c101.881 0 184.482 82.601 184.482 184.501M385.352 92.346c152.84 0 276.733 123.911 276.733 276.752M385.352.095c203.781 0 368.965 165.203 368.965 369.003" />
        <path d="M385.352 369.133L570.369 48.635m-185.017 320.5l319.611-184.538M1369.88 0h-307.5v307.508h307.5V0z" />
        <path d="M1123.86 307.582V0m61.51 307.582V0m61.5 307.582V0m61.5 184.594V0" />
        <path d="M1246.88 246.05h-184.54m307.58-61.513h-307.58m307.58-61.491h-307.58m307.58-61.498h-307.58" />
        <path
            d="M1093.39 61.844c16.98 0 30.74-13.762 30.74-30.738S1110.37.368 1093.39.368c-16.97 0-30.73 13.762-30.73 30.738s13.76 30.738 30.73 30.738zm214.96 245.702c33.95 0 61.48-27.523 61.48-61.475s-27.53-61.476-61.48-61.476-61.47 27.523-61.47 61.476 27.52 61.475 61.47 61.475z" />
        <path d="M1093.39 31.106l214.96 214.962M877.874 123.176h183.986V.095H754.867" />
        <path d="M1062.26 123.177H754.867V430.686H1062.26V123.177Z" />
        <path d="M908.57 123.169L754.82 276.918l153.75 153.75 153.75-153.75-153.75-153.749z" />
        <use href="#I" />
        <use href="#J" />
        <path d="M324.375 645.849h307.508M347.142 684.35l-23.099 23.1 23.099 23.099" />
        <use href="#K" />
        <path
            d="M324.375 707.456h307.508m-284.741 38.522l-23.099 23.1 23.099 23.099m262.014 0l23.1-23.1-23.1-23.099m-284.785 23.099h307.508M754.867 61.59L877.874.095 847.081 61.59l30.793 61.586L754.867 61.59zM631.533 799.663H324.375M847.086 61.585h215.594m307.22 369.074h-61.53v369.003h61.53V430.659zM355.103 207.73l-30.738 15.369-30.756-15.369-30.757 15.369-30.738-15.369-30.756 15.369-30.756-15.369-30.701 15.369-30.793-15.369-30.757 15.369-30.738-15.369" />
        <path d="M385.852 246.178v-61.532H16.849v61.532h369.003zM908.57 123.177v307.49" />
        <path
            d="M1062.33 276.917H754.836M-75.401 61.619l-92.224 92.224 92.224 92.224 92.224-92.224-92.224-92.224zm.015 184.574l-92.223 92.223 92.223 92.224 92.224-92.224-92.224-92.223zM1554.43 184.63h-184.52v369.022h184.52V184.63z" />
        <use href="#L" />
        <path d="M1462.18 369.203l-92.23 92.224 92.23 92.223 92.22-92.223-92.22-92.224z" />
        <path d="M1462.17 184.631V553.634" />
        <use href="#M" />
        <path d="M262.879 430.646h61.531v-61.532h-61.531v61.532z" />
        <path d="M262.879 369.133h61.531v-61.531h-61.531v61.531z" />
        <path d="M201.379 430.646h61.531v-61.531h-61.531v61.531z" />
        <path d="M139.867 430.646h61.531v-61.531h-61.531v61.531z" />
        <use href="#N" />
        <path d="M16.875 430.647h61.531v-61.531H16.875v61.531zm184.5-61.515h61.531v-61.531h-61.531v61.531z" />
        <path d="M139.867 369.134h61.531v-61.531h-61.531v61.531z" />
        <path d="M78.375 369.133h61.531v-61.531H78.375v61.531z" />
        <path d="M139.867 307.62h61.531v-61.531h-61.531v61.531z" />
        <use href="#O" />
        <path d="M1431.34 799.59h61.53v-61.531h-61.53v61.531z" />
        <path d="M1369.86 799.59h61.53v-61.531h-61.53v61.531z" />
        <use href="#P" />
        <path d="M1431.34 738.078h61.53v-61.532h-61.53v61.532z" />
        <path d="M1492.84 676.587h61.53v-61.532h-61.53v61.532zM201.379 307.635h61.531v-61.531h-61.531v61.531z" />
        <use href="#Q" />
        <path d="M1369.92 369.096h-307.54v30.756h307.54v-30.756z" />
        <path d="M1369.92 338.336h-307.54v30.757h307.54v-30.757z" />
        <path d="M1369.92 307.584h-307.54v30.756h307.54v-30.756z" />
        <use href="#R" />
        <path d="M447.359 430.682v-61.55h-30.756v61.55h30.756z" />
        <path d="M478.113 430.682v-61.55h-30.756v61.55h30.756z" />
        <path d="M508.875 430.661v-61.55h-30.756v61.55h30.756z" />
        <path d="M539.613 430.682v-61.55h-30.756v61.55h30.756z" />
        <path d="M570.363 430.682v-61.55h-30.756v61.55h30.756z" />
        <path d="M601.125 430.66v-61.55h-30.756v61.55h30.756z" />
        <path d="M631.855 430.682v-61.55h-30.756v61.55h30.756z" />
        <path d="M662.617 430.682v-61.55h-30.756v61.55h30.756z" />
        <path d="M693.371 430.661v-61.55h-30.756v61.55h30.756z" />
        <path d="M724.109 430.682v-61.55h-30.756v61.55h30.756z" />
        <path d="M754.867 430.682v-61.55h-30.756v61.55h30.756zM16.852 61.695V.145h-30.756v61.55h30.756z" />
        <use href="#S" />
        <use href="#T" />
        <path d="M1462.09 615.219V553.67h-30.75v61.549h30.75z" />
        <path d="M1492.85 615.241v-61.55h-30.75v61.55h30.75z" />
        <path d="M1523.61 615.241v-61.55h-30.75v61.55h30.75z" />
        <path
            d="M1554.34 615.219V553.67h-30.76v61.549h30.76zM16.938 184.597L201.679.096v184.501M47.626.145H16.852V30.92h30.775V.145zm738.039 399.668h-30.774v30.775h30.774v-30.775z" />
        <use href="#U" />
        <path
            d="M785.72 123.228h-30.775v30.775h30.775v-30.775zm276.65-.002h-30.77v30.775h30.77v-30.775zM201.408 430.537h-369.021v369.021h369.021V430.537z" />
        <path
            d="M-167.613 430.537v184.741H16.888l-184.501-184.741zm245.994.109c0 33.967-27.528 61.495-61.494 61.495m-.014-.001c-33.967 0-61.494-27.527-61.494-61.494m202.476 43.487c-11.125-11.126-18.007-26.513-18.007-43.487" />
        <path d="M201.362 430.646H16.621v184.501l184.741-184.501zm.015 246.363c-33.967 0-61.494-27.528-61.494-61.495" />
        <path
            d="M139.883 615.518c0-33.967 27.527-61.495 61.494-61.495m-43.479 202.473c11.126-11.125 26.513-18.007 43.487-18.007" />
        <path
            d="M201.388 800V615.277H16.887L201.388 800zm-246.021-.441c0-33.967 27.528-61.495 61.494-61.495m.002 0c33.967 0 61.494 27.528 61.494 61.495" />
        <path
            d="M-167.613 799.555H17.109V615.053l-184.722 184.502zM1738.96 61.621h-184.51v369.021h184.51V61.621zm1314.6 399.798l15.39 30.757-15.39 30.738 15.39 30.756-15.39 30.757 15.39 30.737-15.39 30.757 15.39 30.701-15.39 30.793 15.39 30.756-15.39 30.757m-576.59-338.282h-553.5v184.502h553.5V430.646z" />
        <path
            d="M1984.96 553.635c33.97 0 61.5-27.532 61.5-61.494s-27.53-61.495-61.5-61.495c-33.96 0-61.49 27.532-61.49 61.495s27.53 61.494 61.49 61.494zm123.01 0c33.97 0 61.5-27.532 61.5-61.495s-27.53-61.494-61.5-61.494c-33.96 0-61.49 27.532-61.49 61.494s27.53 61.495 61.49 61.495zm369-430.551c33.96 0 61.5-27.532 61.5-61.495S2510.93.095 2476.97.095s-61.49 27.532-61.49 61.494 27.53 61.495 61.49 61.495zm155.04 215.332c33.96 0 61.49-27.532 61.49-61.494s-27.53-61.495-61.49-61.495-61.49 27.532-61.49 61.495 27.53 61.494 61.49 61.494zm-401.03 215.237h122.99l-122.99-123.007v123.007z" />
        <path d="M2353.96 553.653h123.01l-123.01-123.007v123.007zm-184.49 61.49l30.76-30.757 30.75 30.757h-61.51z" />
        <path d="M2476.97 553.65h-553.5v30.756h553.5V553.65z" />
        <use href="#V" />
        <path d="M2046.46 676.494h-122.99v61.476h122.99v-61.476z" />
        <path d="M2046.46 615.161h-122.99v61.476h122.99v-61.476zm430.52 122.989h-122.3v61.531h122.3V738.15z" />
        <use href="#W" />
        <path d="M2476.98 615.075h-122.3v61.531h122.3v-61.531z" />
        <path d="M2845.98 430.66h-369.01v369.003h369.01V430.66z" />
        <path d="M2661.47 799.663V430.66" />
        <path d="M2476.97 615.16h369" />
        <path d="M2476.97 430.66v61.495c0 169.833 55.08 307.508 123.01 307.508s123.01-137.675 123.01-307.508V430.66" />
        <path
            d="M2599.99 430.66v61.495c0 169.833 55.07 307.508 123.01 307.508 67.93 0 123-137.675 123-307.508V430.66" />
        <path
            d="M2538.46 430.659v61.495c0 169.833 55.07 307.508 123.01 307.508 67.93 0 123-137.675 123-307.508v-61.495m153.75 369.004c50.95 0 92.25-41.302 92.25-92.251s-41.3-92.251-92.25-92.251-92.25 41.302-92.25 92.251 41.3 92.251 92.25 92.251z" />
        <path d="M3030.48 799.59V430.587h-184.5V799.59h184.5z" />
        <path d="M3025.22 676.583l-86.99-245.995-87 245.995m87-61.421V430.587m38.23 192.878l-38.23-192.878" />
        <path d="M2899.9 623.466l38.23-192.878M1738.95 184.596h369.04V.094h-369.04v184.502z" />
        <path
            d="M2046.48 184.592c0-33.967 27.53-61.494 61.49-61.494m-245.94 61.494c0-33.967 27.53-61.494 61.5-61.494m184.46-61.508c-33.97 0-61.49-27.528-61.49-61.494m-122.96 61.487c-16.93 0-32.27-6.845-43.39-17.915m-97.6 97.44c11.12 11.126 18 26.513 18 43.487m122.99-61.497c33.97 0 61.5 27.527 61.5 61.494" />
        <path d="M1985.04.095c0 33.967-27.53 61.494-61.5 61.494m1168.51 123.006h184.44V.094h-184.44v184.501z" />
        <path
            d="M3092.05 123.098c33.97 0 61.5 27.527 61.5 61.494m0-184.497c0 33.967-27.52 61.494-61.49 61.494M2476.42.095h-368.43v369.003h368.43" />
        <path
            d="M2107.45 276.847c50.94 0 92.25 41.309 92.25 92.25m-92.25-184.5c101.88 0 184.49 82.601 184.49 184.501M2107.45 92.346c152.84 0 276.74 123.911 276.74 276.752M2107.45.096c203.78 0 368.97 165.203 368.97 369.003" />
        <path d="M2107.45 369.132l185.02-320.497m-185.02 320.5l319.61-184.538M3091.99 0h-307.51v307.508h307.51V0z" />
        <path d="M2845.97 307.582V0m61.5 307.582V0m61.51 307.582V0m61.5 184.594V0" />
        <path d="M2968.98 246.051h-184.53m307.58-61.513h-307.58m307.58-61.491h-307.58m307.58-61.498h-307.58" />
        <path
            d="M2815.5 61.843c16.98 0 30.74-13.762 30.74-30.738S2832.48.367 2815.5.367s-30.74 13.762-30.74 30.738 13.76 30.738 30.74 30.738zm214.96 245.705c33.95 0 61.47-27.524 61.47-61.476s-27.52-61.476-61.47-61.476c-33.96 0-61.48 27.524-61.48 61.476s27.52 61.476 61.48 61.476z" />
        <path d="M2815.49 31.106l214.96 214.962m-430.47-122.892h183.98V.096h-306.99" />
        <path d="M2784.37 123.177h-307.4v307.509h307.4V123.177z" />
        <path
            d="M2630.68 123.169l-153.75 153.749 153.75 153.75 153.74-153.75-153.74-153.749zm-561.43 499.582l-23.1 23.099 23.1 23.1m262.01 0l23.1-23.099-23.1-23.1m-284.78 23.098h307.51m-284.74 38.5l-23.1 23.1 23.1 23.099m262.01.001l23.1-23.1-23.1-23.1m-284.78 23.107h307.51m-284.75 38.521l-23.1 23.099 23.1 23.1m262.02 0l23.1-23.099-23.1-23.1m-284.78 23.098h307.5M2476.97 61.59L2599.98.096l-30.79 61.494 30.79 61.586-123.01-61.586zm-123.33 738.073h-307.16m522.71-738.078h215.59m307.23 369.075h-61.53v369.003h61.53V430.66z" />
        <path
            d="M2077.21 207.73l-30.74 15.369-30.76-15.369-30.75 15.369-30.74-15.369-30.76 15.369-30.75-15.369-30.7 15.369-30.8-15.369-30.75 15.369-30.74-15.369" />
        <path d="M2107.95 246.177v-61.531h-369v61.531h369zm522.73-123v307.49" />
        <path d="M2784.43 276.918H2476.94" />
        <use href="#X" />
        <path d="M1646.72 246.193l-92.22 92.223 92.22 92.224 92.22-92.224-92.22-92.223z" />
        <path d="M1646.7 61.621v369.003m1629.84-245.992h-184.52v369.021h184.52V184.632z" />
        <path
            d="M3184.29 184.63l-92.23 92.223 92.23 92.224 92.22-92.224-92.22-92.223zm-.01 184.573l-92.22 92.224 92.22 92.224 92.23-92.224-92.23-92.224zm-1137.79 61.443h61.53v-61.531h-61.53v61.531z" />
        <use href="#Y" />
        <path d="M1984.98 369.133h61.54v-61.531h-61.54v61.531z" />
        <path d="M1923.48 430.647h61.54v-61.531h-61.54v61.531z" />
        <path d="M1861.97 430.646h61.53v-61.531h-61.53v61.531z" />
        <path d="M1800.48 430.646h61.53v-61.531h-61.53v61.531z" />
        <path d="M1738.98 430.646h61.54v-61.531h-61.54v61.531z" />
        <use href="#Z" />
        <path d="M1861.97 369.133h61.53v-61.531h-61.53v61.531z" />
        <path d="M1800.48 369.132h61.53v-61.531h-61.53v61.531z" />
        <path d="M1861.97 307.62h61.53v-61.531h-61.53v61.531zm1229.99 491.97h61.53v-61.531h-61.53v61.531z" />
        <path d="M1923.48 307.636h61.54v-61.532h-61.54v61.532z" />
        <use href="#a" />
        <path d="M3092.03 369.096h-307.55v30.757h307.55v-30.757z" />
        <use href="#b" />
        <path d="M3092.03 307.585h-307.55v30.756h307.55v-30.756zm-953.3 123.075v-61.549h-30.76v61.549h30.76z" />
        <path d="M2169.47 430.682v-61.55h-30.76v61.55h30.76z" />
        <path d="M2200.22 430.682v-61.55h-30.76v61.55h30.76z" />
        <path d="M2230.98 430.661v-61.55h-30.76v61.55h30.76z" />
        <path d="M2261.71 430.682v-61.55h-30.75v61.55h30.75z" />
        <path d="M2292.47 430.682v-61.55h-30.75v61.55h30.75z" />
        <path d="M2323.23 430.661v-61.55h-30.76v61.55h30.76z" />
        <path d="M2353.96 430.682v-61.55h-30.76v61.55h30.76z" />
        <path d="M2384.73 430.682v-61.55h-30.76v61.55h30.76z" />
        <path d="M2415.48 430.661v-61.55h-30.76v61.55h30.76z" />
        <path d="M2446.21 430.682v-61.55h-30.76v61.55h30.76z" />
        <path d="M2476.97 430.682v-61.55h-30.75v61.55h30.75zM1585.2 61.695V.145h-30.75v61.55h30.75z" />
        <path d="M1615.96 61.681V.131h-30.75v61.55h30.75z" />
        <path d="M1646.7 61.694V.144h-30.76v61.55h30.76z" />
        <path d="M1677.45 61.694V.145h-30.76v61.55h30.76z" />
        <path d="M1708.22 61.681V.132h-30.76v61.55h30.76z" />
        <path
            d="M1738.95 61.694V.144h-30.75v61.55h30.75zm1383.76 553.547v-61.55h-30.76v61.55h30.76zM1739.05 184.596L1923.79.095v184.501" />
        <path d="M1769.73.144h-30.78v30.775h30.78V.144zm738.04 399.669H2477v30.775h30.77v-30.775z" />
        <use href="#c" />
        <path
            d="M2507.82 123.228h-30.77v30.775h30.77v-30.775zm276.66-.001h-30.78v30.775h30.78v-30.775zm-860.97 307.312h-369.02V799.56h369.02V430.539z" />
        <path
            d="M1554.49 553.527c33.96 0 61.49 27.528 61.49 61.494m0-.004c0 33.967-27.53 61.494-61.49 61.494m43.49-202.47c-11.13 11.125-26.52 18.007-43.49 18.007" />
        <path
            d="M1554.49 430.539V615.28h184.5l-184.5-184.741zm245.99.107c0 33.967-27.53 61.495-61.49 61.495m-.01 0c-33.97 0-61.5-27.528-61.5-61.495m202.48 43.487c-11.12-11.125-18.01-26.512-18.01-43.487" />
        <path d="M1923.47 430.646h-184.74v184.501l184.74-184.501zm.01 246.363c-33.96 0-61.49-27.528-61.49-61.495" />
        <path
            d="M1861.99 615.518c0-33.967 27.53-61.495 61.49-61.495M1880 756.497c11.13-11.125 26.52-18.007 43.49-18.007" />
        <path
            d="M1923.49 800V615.277h-184.5L1923.49 800zm-246.02-.442c0-33.967 27.53-61.495 61.5-61.495m0 .001c33.97 0 61.49 27.528 61.49 61.495m-202.47-43.493c11.12 11.126 18.01 26.513 18.01 43.487" />
        <path d="M1554.49 799.554h184.72V615.052l-184.72 184.502z" />
    </g>
    <defs>
        <clipPath id="A">
            <path fill="#fff" d="M0 0h3109v800H0z" />
        </clipPath>
        <path id="B" d="M324.356 738.135H201.367v61.476h122.989v-61.476z" />
        <path id="C" d="M754.876 676.457H632.57v61.531h122.306v-61.531z" />
        <path id="D" d="M1308.37 799.59V430.587h-184.5V799.59h184.5z" />
        <path id="E" d="M1369.94 184.595h184.44V.094h-184.44v184.501z" />
        <path id="F" d="M1554.4 61.589c-33.97 0-61.49-27.528-61.49-61.494" />
        <path id="G" d="M1369.95 123.097c33.97 0 61.5 27.527 61.5 61.494" />
        <path id="H" d="M385.352 276.847c50.94 0 92.25 41.309 92.25 92.25" />
        <path id="I" d="M347.142 622.751l-23.099 23.1 23.099 23.099" />
        <path id="J" d="M609.156 668.95l23.1-23.099-23.1-23.1" />
        <path id="K" d="M609.156 730.548l23.1-23.1-23.1-23.099" />
        <path id="L" d="M1462.18 184.63l-92.22 92.223 92.22 92.224 92.22-92.224-92.22-92.223z" />
        <path id="M" d="M324.387 430.646h61.531v-61.531h-61.531v61.531z" />
        <path id="N" d="M78.375 430.646h61.531v-61.531H78.375v61.531z" />
        <path id="O" d="M1492.84 799.59h61.53v-61.531h-61.53v61.531z" />
        <path id="P" d="M1492.84 738.078h61.53v-61.532h-61.53v61.532z" />
        <path id="Q" d="M1369.92 399.835h-307.54v30.756h307.54v-30.756z" />
        <path id="R" d="M416.625 430.661v-61.55h-30.756v61.55h30.756z" />
        <path id="S" d="M1400.6 615.241v-61.55h-30.75v61.55h30.75z" />
        <path id="T" d="M1431.36 615.24v-61.55h-30.76v61.55h30.76z" />
        <path id="U" d="M1062.37 399.812h-30.77v30.775h30.77v-30.775z" />
        <path id="V" d="M2046.46 738.135h-122.99v61.476h122.99v-61.476z" />
        <path id="W" d="M2476.98 676.457h-122.3v61.531h122.3v-61.531z" />
        <path id="X" d="M1646.7 61.619l-92.22 92.224 92.22 92.224 92.23-92.224-92.23-92.224z" />
        <path id="Y" d="M1984.98 430.646h61.54v-61.531h-61.54v61.531z" />
        <path id="Z" d="M1923.48 369.134h61.54v-61.532h-61.54v61.532z" />
        <path id="a" d="M3092.03 399.835h-307.55v30.757h307.55v-30.757z" />
        <path id="b" d="M3092.03 338.337h-307.55v30.756h307.55v-30.756z" />
        <path id="c" d="M2784.48 399.813h-30.78v30.775h30.78v-30.775z" />
    </defs>
</svg>